<?xml version="1.0" encoding="utf-8"?>
<!-- Generator: Adobe Illustrator 16.0.0, SVG Export Plug-In . SVG Version: 6.00 Build 0)  -->
<!DOCTYPE svg PUBLIC "-//W3C//DTD SVG 1.1//EN" "http://www.w3.org/Graphics/SVG/1.1/DTD/svg11.dtd">
<svg version="1.1" id="Layer_1" xmlns="http://www.w3.org/2000/svg" xmlns:xlink="http://www.w3.org/1999/xlink" x="0px" y="0px"
	 width="17px" height="18px" viewBox="0 0 17 18" enable-background="new 0 0 17 18" xml:space="preserve">
<path fill="#FFFFFF" d="M16.715,16.205l-2.614-2.861c1.211-1.463,1.874-3.305,1.874-5.222C15.975,3.644,12.391,0,7.985,0
	c-4.406,0-7.99,3.644-7.99,8.122s3.584,8.122,7.99,8.122c1.653,0,3.229-0.507,4.577-1.469l2.65,2.899
	C15.411,17.884,15.678,18,15.964,18c0.271,0,0.527-0.105,0.722-0.297C17.1,17.299,17.113,16.627,16.715,16.205z M7.985,2.119
	c3.256,0,5.905,2.693,5.905,6.003c0,3.311-2.649,6.003-5.905,6.003c-3.257,0-5.906-2.692-5.906-6.003
	C2.079,4.813,4.729,2.119,7.985,2.119z"/>
</svg>
